<svg xmlns="http://www.w3.org/2000/svg" version="1.1" xmlns:xlink="http://www.w3.org/1999/xlink" xmlns:svgjs="http://svgjs.dev/svgjs" width="1500" height="314" viewBox="0 0 1500 314"><g transform="matrix(1,0,0,1,-0.9090909090909918,-0.3606383964442159)"><svg viewBox="0 0 396 83" data-background-color="#ffffff" preserveAspectRatio="xMidYMid meet" height="314" width="1500" xmlns="http://www.w3.org/2000/svg" xmlns:xlink="http://www.w3.org/1999/xlink"><g id="tight-bounds" transform="matrix(1,0,0,1,0.2400000000000091,0.09532798377347262)"><svg viewBox="0 0 395.52 82.80934403245305" height="82.80934403245305" width="395.52"><g><svg viewBox="0 0 547.9188327651223 114.71682626493508" height="82.80934403245305" width="395.52"><g transform="matrix(1,0,0,1,152.39883276512228,15.854496249350653)"><svg viewBox="0 0 395.5199999999999 83.00783376623377" height="83.00783376623377" width="395.5199999999999"><g id="textblocktransform"><svg viewBox="0 0 395.5199999999999 83.00783376623377" height="83.00783376623377" width="395.5199999999999" id="textblock"><g><svg viewBox="0 0 395.5199999999999 83.00783376623377" height="83.00783376623377" width="395.5199999999999"><g transform="matrix(1,0,0,1,0,0)"><svg width="395.5199999999999" viewBox="3 -39.65 194.38 40.4" height="83.00783376623377" data-palette-color="#0c87f3"><path d="M10.9-34.55Q17.15-34.55 20.43-31.78 23.7-29 23.7-23.6L23.7-23.6Q23.7-17.85 20.48-15 17.25-12.15 11.35-12.15L11.35-12.15 9.35-12.15 9.35 0 3 0 3-34.55 10.9-34.55ZM11-16.9Q14.25-16.9 15.7-18.4 17.15-19.9 17.15-23.55L17.15-23.55Q17.15-26.85 15.7-28.35 14.25-29.85 11.05-29.85L11.05-29.85 9.35-29.85 9.35-16.9 11-16.9ZM38.95-27.1Q40.1-27.1 41-26.75L41-26.75 40-20.85Q39-21.1 38.15-21.1L38.15-21.1Q36.25-21.1 35.15-19.45 34.05-17.8 33.45-14.55L33.45-14.55 33.45 0 27.3 0 27.3-26.45 32.65-26.45 33.1-21.85Q34.95-27.1 38.95-27.1L38.95-27.1ZM53.25-27.15Q58.25-27.15 61.02-23.65 63.8-20.15 63.8-13.25L63.8-13.25Q63.8-6.65 61-2.95 58.2 0.75 53.25 0.75L53.25 0.75Q48.3 0.75 45.5-2.88 42.7-6.5 42.7-13.25L42.7-13.25Q42.7-19.95 45.5-23.55 48.3-27.15 53.25-27.15L53.25-27.15ZM53.25-22.5Q51.1-22.5 50.1-20.38 49.1-18.25 49.1-13.25L49.1-13.25Q49.1-8.2 50.1-6.08 51.1-3.95 53.25-3.95L53.25-3.95Q55.4-3.95 56.4-6.08 57.4-8.2 57.4-13.25L57.4-13.25Q57.4-18.3 56.4-20.4 55.4-22.5 53.25-22.5L53.25-22.5ZM78.04-33.05Q76.64-33.05 75.97-32.3 75.29-31.55 75.29-30L75.29-30 75.29-26.45 80.34-26.45 79.64-22 75.29-22 75.29 0 69.14 0 69.14-22 65.84-22 65.84-26.45 69.14-26.45 69.14-29.8Q69.14-33.4 71.24-35.55 73.34-37.7 77.24-37.7L77.24-37.7Q80.29-37.7 83.14-36.2L83.14-36.2 81.44-32.2Q79.69-33.05 78.04-33.05L78.04-33.05ZM83.14-26.45L89.29-26.45 89.29 0 83.14 0 83.14-26.45ZM86.19-39.65Q87.84-39.65 88.87-38.6 89.89-37.55 89.89-35.9L89.89-35.9Q89.89-34.3 88.87-33.25 87.84-32.2 86.19-32.2L86.19-32.2Q84.54-32.2 83.52-33.25 82.49-34.3 82.49-35.9L82.49-35.9Q82.49-37.55 83.52-38.6 84.54-39.65 86.19-39.65L86.19-39.65ZM106.14-5L108.29-1.2Q105.84 0.75 102.54 0.75L102.54 0.75Q99.09 0.75 97.29-1.23 95.49-3.2 95.49-6.6L95.49-6.6 95.49-22 92.39-22 92.39-26.45 95.49-26.45 95.49-32.3 101.64-33.05 101.64-26.45 106.64-26.45 106.04-22 101.64-22 101.64-6.6Q101.64-4.2 103.69-4.2L103.69-4.2Q104.34-4.2 104.84-4.38 105.34-4.55 106.14-5L106.14-5ZM118.89-34.55Q125.14-34.55 128.41-31.78 131.69-29 131.69-23.6L131.69-23.6Q131.69-17.85 128.46-15 125.24-12.15 119.34-12.15L119.34-12.15 117.34-12.15 117.34 0 110.99 0 110.99-34.55 118.89-34.55ZM118.99-16.9Q122.24-16.9 123.69-18.4 125.14-19.9 125.14-23.55L125.14-23.55Q125.14-26.85 123.69-28.35 122.24-29.85 119.04-29.85L119.04-29.85 117.34-29.85 117.34-16.9 118.99-16.9ZM135.28-26.45L141.43-26.45 141.43 0 135.28 0 135.28-26.45ZM138.33-39.65Q139.98-39.65 141.01-38.6 142.03-37.55 142.03-35.9L142.03-35.9Q142.03-34.3 141.01-33.25 139.98-32.2 138.33-32.2L138.33-32.2Q136.68-32.2 135.66-33.25 134.63-34.3 134.63-35.9L134.63-35.9Q134.63-37.55 135.66-38.6 136.68-39.65 138.33-39.65L138.33-39.65ZM152.73 0.75Q150.03 0.75 148.46-0.93 146.88-2.6 146.88-5.4L146.88-5.4 146.88-37.05 153.03-37.7 153.03-5.65Q153.03-5 153.33-4.6 153.63-4.2 154.23-4.2L154.23-4.2Q154.58-4.2 154.91-4.3 155.23-4.4 155.33-4.4L155.33-4.4 156.53-0.2Q154.83 0.75 152.73 0.75L152.73 0.75ZM168.98-27.15Q173.98-27.15 176.75-23.65 179.53-20.15 179.53-13.25L179.53-13.25Q179.53-6.65 176.73-2.95 173.93 0.75 168.98 0.75L168.98 0.75Q164.03 0.75 161.23-2.88 158.43-6.5 158.43-13.25L158.43-13.25Q158.43-19.95 161.23-23.55 164.03-27.15 168.98-27.15L168.98-27.15ZM168.98-22.5Q166.83-22.5 165.83-20.38 164.83-18.25 164.83-13.25L164.83-13.25Q164.83-8.2 165.83-6.08 166.83-3.95 168.98-3.95L168.98-3.95Q171.13-3.95 172.13-6.08 173.13-8.2 173.13-13.25L173.13-13.25Q173.13-18.3 172.13-20.4 171.13-22.5 168.98-22.5L168.98-22.5ZM195.22-5L197.38-1.2Q194.92 0.75 191.63 0.75L191.63 0.75Q188.17 0.75 186.38-1.23 184.57-3.2 184.57-6.6L184.57-6.6 184.57-22 181.47-22 181.47-26.45 184.57-26.45 184.57-32.3 190.72-33.05 190.72-26.45 195.72-26.45 195.13-22 190.72-22 190.72-6.6Q190.72-4.2 192.78-4.2L192.78-4.2Q193.42-4.2 193.92-4.38 194.42-4.55 195.22-5L195.22-5Z" opacity="1" transform="matrix(1,0,0,1,0,0)" fill="#0c87f3" class="wordmark-text-0" data-fill-palette-color="primary" id="text-0"></path></svg></g></svg></g></svg></g></svg></g><g><svg viewBox="0 0 132.80267540092487 114.71682626493508" height="114.71682626493508" width="132.80267540092487"><g><svg xmlns="http://www.w3.org/2000/svg" xmlns:xlink="http://www.w3.org/1999/xlink" version="1.1" x="0" y="0" viewBox="1.5243874732905622 8.199908172635444 96.89595230176577 83.70009182736456" enable-background="new 0 0 100 100" xml:space="preserve" height="114.71682626493508" width="132.80267540092487" class="icon-icon-0" data-fill-palette-color="accent" id="icon-0"><path d="M53.3 64.5C54.4 64.5 55.2 65.4 55.2 66.4V90C55.2 91.1 54.3 91.9 53.3 91.9H44.5C43.4 91.9 42.6 91 42.6 90V66.4C42.6 65.3 43.5 64.5 44.5 64.5zM62.3 91.8H71.1C72.2 91.8 73 90.9 73 89.9V55.8C73 54.7 72.1 53.9 71.1 53.9H62.3C61.2 53.9 60.4 54.8 60.4 55.8V90C60.4 91 61.2 91.8 62.3 91.8M85.8 21.6C85.2 20.7 83.9 20.7 83.4 21.6L71 41.6C70.4 42.6 71.1 43.8 72.2 43.8H78.3V89.9C78.3 91 79.2 91.8 80.2 91.8H89C90 91.8 90.8 91 90.9 90V43.8H97C98.1 43.8 98.8 42.6 98.2 41.6zM22.8 24.2C30 24.1 29 14.5 29 14.5 28.7 8.1 23.4 8.2 22.8 8.2 22.3 8.2 16.9 8.1 16.6 14.5 16.6 14.5 15.6 24.1 22.8 24.2M14.2 55.6L3.1 46.1C1.2 44.4 1 41.6 2.6 39.6L11.8 29.6C12.1 29.3 12.4 29 12.7 28.8 15.2 27.1 18.1 25.9 18.1 25.9L20.6 33.8 22.1 29.7C19.5 26.1 22.4 26 22.8 26S26.1 26.1 23.5 29.7L25 33.8 27.5 25.9S30.8 27.2 33.4 29.2C34.1 29.7 34.4 30 35 30.6 35.1 30.7 35.1 30.8 35.2 30.9L41.1 40.2 53.6 43.8C54.6 44.1 55.4 45.1 55.4 46.1 55.4 47.6 54 48.8 52.5 48.5L37.9 45.6C37 45.4 36.3 44.9 35.8 44.2L32.8 39.8C32.7 39.6 32.4 39.7 32.4 39.9L31 52.2 29.5 89.5C29.4 90.8 28.4 91.8 27 91.8 25.8 91.8 24.7 90.8 24.6 89.6L22 63.5 17.1 89.8C16.9 91.1 15.6 92 14.3 91.8 13.1 91.6 12.2 90.5 12.3 89.3zM14.2 48.8L13.2 38.9 8.6 43.1zM46.6 31.8C46.6 27 50.5 23 55.4 23 60.2 23 64.2 26.9 64.2 31.8 64.2 36.6 60.3 40.6 55.4 40.6S46.6 36.7 46.6 31.8M52.6 36C53.1 36.2 53.6 36.3 54.1 36.4 54.5 36.5 54.5 36.5 54.5 36.9V37.5C54.5 37.7 54.6 37.9 54.9 37.9H55.7C55.9 37.9 56 37.8 56 37.5V36.7C56 36.4 56.1 36.3 56.4 36.2 57 36 57.5 35.7 57.9 35.3 59 34 58.6 32.1 57 31.3 56.5 31 56 30.8 55.5 30.6 55.2 30.5 54.9 30.3 54.7 30.1 54.2 29.7 54.3 29.1 54.9 28.9 55.1 28.8 55.2 28.8 55.4 28.8 56.1 28.8 56.7 28.9 57.3 29.2 57.6 29.3 57.7 29.3 57.8 29S58 28.4 58.1 28C58.2 27.8 58.1 27.6 57.9 27.5 57.5 27.3 57.1 27.2 56.7 27.2 56.2 27.1 56.2 27.1 56.2 26.6 56.2 25.8 56.2 25.8 55.4 25.8H55.1C54.7 25.8 54.7 25.9 54.7 26.2V26.7C54.7 27.2 54.7 27.2 54.2 27.3 53.1 27.7 52.4 28.4 52.4 29.6 52.3 30.7 52.9 31.4 53.8 31.9 54.3 32.2 54.9 32.4 55.5 32.7 55.7 32.8 55.9 32.9 56.1 33.1 56.6 33.5 56.5 34.3 55.9 34.6 55.6 34.8 55.2 34.8 54.8 34.7 54.2 34.6 53.7 34.5 53.1 34.2 52.8 34 52.7 34.1 52.6 34.4S52.4 35 52.4 35.3C52.2 35.7 52.2 35.8 52.6 36" fill="#0c87f3" data-fill-palette-color="accent"></path></svg></g></svg></g></svg></g><defs></defs></svg><rect width="395.52" height="82.80934403245305" fill="none" stroke="none" visibility="hidden"></rect></g></svg></g></svg>